<?xml version="1.0" encoding="UTF-8"?>
<svg xmlns="http://www.w3.org/2000/svg" xmlns:xlink="http://www.w3.org/1999/xlink" id="katman_2" data-name="katman 2" viewBox="0 0 137.79 68.86">
  <defs>
    <style>
      .cls-1 {
        fill: none;
      }

      .cls-2 {
        fill: #4e4a49;
      }

      .cls-3 {
        fill: #ed6c05;
      }

      .cls-4 {
        clip-path: url(#clippath);
      }
    </style>
    <clipPath id="clippath">
      <rect class="cls-1" width="137.79" height="38.05"></rect>
    </clipPath>
  </defs>
  <g id="katman_1" data-name="katman 1">
    <g>
      <g class="cls-4">
        <polyline class="cls-3" points="68.82 5.95 137.64 37.83 69.08 .25 68.97 .02 68.82 .11 68.67 .02 68.55 .25 0 37.83 68.82 5.95"></polyline>
      </g>
      <g>
        <path class="cls-3" d="M68.88,45.57c-4.21,5.15-9.56,7.78-16.16,7.49-5.05-.22-9.35-2.28-12.86-5.94-6.93-7.21-6.94-18.84.08-26.19,4.01-4.2,8.99-6.16,14.81-5.86,5.83.3,10.45,2.95,14.16,7.49,4.49-5.52,10.24-8.1,17.26-7.42,5.12.49,9.35,2.88,12.66,6.85,6.47,7.74,5.58,19.27-2.08,26.29-7.37,6.75-20.28,6.9-27.85-2.7ZM67.47,34.03c-.08,9.06,7.43,16.63,16.55,16.69,8.98.06,16.62-7.39,16.72-16.29.1-9.25-7.23-16.95-16.2-17.03-9.5-.08-16.98,7.21-17.07,16.63ZM53.35,17.35c-.76.1-1.88.18-2.98.39-8.84,1.63-14.88,10.88-12.99,19.68,1.76,8.16,9.3,13.92,17.55,13.23,5.08-.43,9.09-2.74,12.17-6.76.3-.39.3-.7.08-1.15-2.83-5.79-2.84-11.59.01-17.38.23-.46.19-.76-.11-1.15-3.38-4.41-7.84-6.66-13.74-6.85Z"></path>
        <path class="cls-3" d="M79.41,29.52c.07-.02.14-.05.21-.07.16.23.33.46.48.7,2.63,4.13,5.31,8.23,7.87,12.41.68,1.11,1.4,1.63,2.72,1.49.78-.08.97-.3.96-1.05-.03-5.84,0-11.68-.02-17.52,0-1.6.25-1.39-1.4-1.4-1.2,0-1.39.2-1.4,1.4,0,4.02,0,8.04,0,12.05,0,.3-.03.6-.04.9-.07.02-.14.03-.21.05-.17-.25-.35-.5-.51-.76-2.53-4.01-5.11-7.98-7.55-12.04-.74-1.23-1.52-1.81-2.97-1.64-.76.09-.97.26-.97,1.02.03,6.03.02,12.05.02,18.08,0,.26.03.52.05.87.34,0,.63,0,.92,0,1.73,0,1.84-.11,1.84-1.81,0-3.94,0-7.88,0-11.81,0-.29,0-.58,0-.87Z"></path>
        <path class="cls-3" d="M56.68,32.44c-2.03,0-3.91-.02-5.78.01-.63,0-.92-.15-.9-.85.05-1.37.04-2.73,0-4.1-.01-.59.17-.8.78-.79,2.28.03,4.55.01,6.83.01,1.92,0,1.89,0,1.9-1.89,0-.63-.22-.76-.8-.75-3.37.02-6.75,0-10.12.01-1.12,0-1.37.24-1.37,1.36,0,5.71,0,11.42,0,17.12,0,1.23.21,1.44,1.45,1.45,3.56,0,7.12,0,10.69,0,.23,0,.47-.03.77-.05,0-.58-.04-1.12.01-1.64.07-.71-.18-.92-.89-.91-2.79.04-5.57,0-8.36.02-.63,0-.92-.16-.9-.86.04-1.58.04-3.16,0-4.74-.01-.61.2-.78.79-.77,1.58.03,3.16.02,4.74,0,.24,0,.64-.16.69-.32.2-.71.3-1.45.45-2.29Z"></path>
        <path class="cls-3" d="M79.41,29.52c0,.29,0,.58,0,.87,0,3.94,0,7.88,0,11.81,0,1.7-.11,1.81-1.84,1.81-.29,0-.58,0-.92,0-.02-.35-.05-.61-.05-.87,0-6.03.01-12.05-.02-18.08,0-.76.21-.93.97-1.02,1.45-.16,2.23.41,2.97,1.64,2.44,4.06,5.02,8.03,7.55,12.04.16.26.34.51.51.76.07-.02.14-.03.21-.05.02-.3.04-.6.04-.9,0-4.02,0-8.04,0-12.05,0-1.2.2-1.41,1.4-1.4,1.64.01,1.4-.2,1.4,1.4.01,5.84,0,11.68.02,17.52,0,.74-.18.96-.96,1.05-1.33.14-2.04-.38-2.72-1.49-2.56-4.17-5.24-8.28-7.87-12.41-.15-.24-.32-.47-.48-.7-.07.02-.14.05-.21.07Z"></path>
        <path class="cls-3" d="M56.68,32.44c-.15.84-.25,1.58-.45,2.29-.05.16-.45.32-.69.32-1.58.03-3.16.04-4.74,0-.59-.01-.81.17-.79.77.03,1.58.04,3.16,0,4.74-.02.7.26.86.9.86,2.79-.02,5.57.01,8.36-.02.71,0,.96.21.89.91-.05.52-.01,1.06-.01,1.64-.31.02-.54.05-.77.05-3.56,0-7.12,0-10.69,0-1.25,0-1.45-.21-1.45-1.45,0-5.71,0-11.42,0-17.12,0-1.11.25-1.36,1.37-1.36,3.37,0,6.75.01,10.12-.01.57,0,.8.13.8.75,0,1.89.02,1.89-1.9,1.89-2.28,0-4.55.02-6.83-.01-.6,0-.79.2-.78.79.03,1.37.04,2.73,0,4.1-.02.7.26.86.9.85,1.87-.03,3.75-.01,5.78-.01Z"></path>
      </g>
      <g>
        <path class="cls-2" d="M26.29,65.95c-.57.8-1.32,1.17-2.41,1.17h-2.88v-7.99h2.88c1.09,0,1.84.37,2.41,1.17.49.68.5,1.5.5,2.83s-.01,2.14-.5,2.83ZM24.91,61.02c-.26-.33-.64-.49-1.17-.49h-1.19v5.2h1.19c.53,0,.91-.17,1.17-.49.29-.35.33-.85.33-2.11s-.03-1.76-.33-2.11Z"></path>
        <path class="cls-2" d="M28.39,67.12v-7.99h5.26v1.39h-3.7v1.87h3.15v1.39h-3.15v1.94h3.7v1.39h-5.26Z"></path>
        <path class="cls-2" d="M39.89,67.12l-3.16-4.9v4.9h-1.56v-7.99h1.39l3.16,4.89v-4.89h1.56v7.99h-1.39Z"></path>
        <path class="cls-2" d="M43.15,67.12v-7.99h5.26v1.39h-3.7v1.87h3.15v1.39h-3.15v1.94h3.7v1.39h-5.26Z"></path>
        <path class="cls-2" d="M52.98,63.85v3.28h-1.55v-3.28l-2.4-4.71h1.69l1.49,3.22,1.47-3.22h1.69l-2.4,4.71Z"></path>
        <path class="cls-2" d="M56.35,67.12v-7.99h1.56v7.99h-1.56ZM56.47,56.97h1.29v1.3h-1.29v-1.3Z"></path>
        <path class="cls-2" d="M65.44,67.12v-4.65l-1.53,3.03h-1.05l-1.54-3.03v4.65h-1.56v-7.99h1.54l2.09,4.32,2.07-4.32h1.54v7.99h-1.56Z"></path>
        <path class="cls-2" d="M77.14,67.12v-4.65l-1.53,3.03h-1.05l-1.54-3.03v4.65h-1.56v-7.99h1.54l2.09,4.32,2.07-4.32h1.54v7.99h-1.56Z"></path>
        <path class="cls-2" d="M80.56,67.12v-7.99h5.26v1.39h-3.7v1.87h3.15v1.39h-3.15v1.94h3.7v1.39h-5.26Z"></path>
        <path class="cls-2" d="M91.58,67.12l-1.56-3.19h-1.12v3.19h-1.56v-7.99h3.13c1.63,0,2.59,1.11,2.59,2.44,0,1.12-.68,1.82-1.46,2.1l1.78,3.44h-1.81ZM90.37,60.53h-1.47v2.11h1.47c.68,0,1.13-.44,1.13-1.05s-.45-1.05-1.13-1.05Z"></path>
        <path class="cls-2" d="M99.32,67.12l-2.05-3.63-1.03,1.23v2.4h-1.56v-7.99h1.56v3.48l2.81-3.48h1.9l-2.65,3.17,2.84,4.81h-1.82Z"></path>
        <path class="cls-2" d="M102.14,67.12v-7.99h5.26v1.39h-3.7v1.87h3.15v1.39h-3.15v1.94h3.7v1.39h-5.26Z"></path>
        <path class="cls-2" d="M108.44,67.12v-1.26l3.41-5.34h-3.26v-1.39h5.1v1.23l-3.42,5.36h3.42v1.39h-5.25Z"></path>
        <path class="cls-2" d="M115.07,67.12v-7.99h1.56v7.99h-1.56ZM115.19,56.97h1.29v1.3h-1.29v-1.3Z"></path>
      </g>
      <rect class="cls-2" x="21" y="68.58" width="95.63" height=".29"></rect>
    </g>
  </g>
</svg>
